<svg xmlns="http://www.w3.org/2000/svg" viewBox="0 0 128 128">
  <defs>
    <radialGradient id="bg" cx="32%" cy="22%" r="82%">
      <stop offset="0" stop-color="#3a1018"/>
      <stop offset=".48" stop-color="#111116"/>
      <stop offset="1" stop-color="#050506"/>
    </radialGradient>
    <linearGradient id="blade" x1="0" x2="1">
      <stop offset="0" stop-color="#777d86"/>
      <stop offset=".22" stop-color="#f7f7f3"/>
      <stop offset=".5" stop-color="#b8bec7"/>
      <stop offset=".74" stop-color="#ffffff"/>
      <stop offset="1" stop-color="#6d737d"/>
    </linearGradient>
    <linearGradient id="edge" x1="0" x2="1">
      <stop offset="0" stop-color="#ffffff" stop-opacity=".15"/>
      <stop offset=".5" stop-color="#ffffff" stop-opacity=".82"/>
      <stop offset="1" stop-color="#ffffff" stop-opacity=".18"/>
    </linearGradient>
    <filter id="shadow" x="-40%" y="-40%" width="180%" height="180%">
      <feDropShadow dx="0" dy="5" stdDeviation="5" flood-color="#000" flood-opacity=".65"/>
    </filter>
  </defs>
  <g transform="translate(64 64) rotate(45) translate(-64 -64)" filter="url(#shadow)">
    <path d="M58 9h12l7 68H51l7-68Z" fill="url(#blade)"/>
    <path d="M64 10v67" stroke="#f9fbff" stroke-width="1.8" opacity=".75"/>
    <path d="M58 9 51 77h13V9Z" fill="#ffffff" opacity=".2"/>
    <path d="M70 9 77 77H64V9Z" fill="#050506" opacity=".18"/>
    <path d="M44 78h40c5 0 9 4 9 9v1H35v-1c0-5 4-9 9-9Z" fill="#8b1021"/>
    <path d="M39 82h50" stroke="#f2c14e" stroke-width="3" stroke-linecap="round" opacity=".9"/>
    <rect x="57" y="87" width="14" height="25" rx="4" fill="#2b1b13"/>
    <path d="M57 91h14M57 98h14M57 105h14" stroke="#c99a3a" stroke-width="2" opacity=".75"/>
    <ellipse cx="64" cy="116" rx="15" ry="7" fill="#f2c14e"/>
    <ellipse cx="64" cy="116" rx="8" ry="3.5" fill="#fff0a8" opacity=".52"/>
  </g>
</svg>
